<svg id="DREAM_Logo" xmlns="http://www.w3.org/2000/svg" xmlns:xlink="http://www.w3.org/1999/xlink" width="295.158" height="52.779" viewBox="0 0 295.158 52.779">
  <defs>
    <linearGradient id="linear-gradient" y1="0.5" x2="1" y2="0.5" gradientUnits="objectBoundingBox">
      <stop offset="0.05" stop-color="#00a84f"/>
      <stop offset="0.99" stop-color="#004f9d"/>
    </linearGradient>
  </defs>
  <g id="Group_4" data-name="Group 4">
    <path id="GBT_DREAM_Logo_RGB_FullColor" d="M56.9,11.255H39.248v.015c-1.174-.008-2.569-.015-4.261-.015-4.018,0-7.456.038-8.714.161-4.551.444-10.253,3.754-11.923,8.526a7.765,7.765,0,0,0,.686,6.626h2.958a5.637,5.637,0,0,1-1.372-5.822c1.182-3.394,5.611-6.5,9.88-6.91,2-.2,7.608-.169,12.129-.107L26.449,62.709h20.56a38.7,38.7,0,0,0,24.357-8.151,29,29,0,0,0,10.993-23.28c0-12.348-9.758-20.016-25.462-20.016Zm6.289,39.068C60.213,54.873,54.77,60.3,45.751,60.3h-5.6l11.61-46.659h4.155c8.965,0,13.326,4.566,13.326,13.957C69.246,36.289,67.1,44.355,63.193,50.322ZM119.8,11.255H96.264L83.464,62.7H96.576L102.4,39.23h6.335c5.771,0,6.96,2.183,7.44,8.342l.625,6.94a19.956,19.956,0,0,0,1.494,7.568l.282.62h14.08l-1.014-1.616c-1.441-2.3-1.753-4.451-2.089-7.737l-.77-6.534c-.3-3.018-1.868-6.519-6.96-8.365,8.729-1.907,16.009-6.971,16.009-15.566,0-7.392-6.571-11.628-18.022-11.628ZM109.772,36.84h-6.785l5.786-23.188h7.387c5.756,0,8.553,2.627,8.553,8.036C124.714,31.034,118.989,36.84,109.772,36.84ZM307.935,47.465h-2.958a5.637,5.637,0,0,1,1.372,5.822c-1.182,3.394-5.611,6.5-9.88,6.91-1.761.176-8.34.169-14.492.13l12.205-49.072H281.39l-22.6,35.191-6.686-35.191H239.827L227.668,60.12l-11.4-49.57h-1.662L179.389,60.3H152.654l5.786-23.188h18.586l.595-2.4H159.035l5.23-21.073H190l.595-2.4H151.747l-12.8,51.447h41.677L191.632,47.12h19.859l3.37,15.573h14.606l11.1-44.728,8.462,45.364h1.723l28.519-44.414L268.476,62.77h19.5c4.018,0,7.456-.038,8.714-.161,4.551-.444,10.253-3.754,11.923-8.526a7.765,7.765,0,0,0-.686-6.626Zm-114.58-2.727,13.5-19.074,4.124,19.074Z" transform="translate(-13.903 -10.55)" fill="url(#linear-gradient)"/>
  </g>
</svg>
