<svg xmlns="http://www.w3.org/2000/svg" width="43.392" height="86.01" viewBox="0 0 43.392 86.01">
  <g id="Icon_Gender" transform="translate(0)">
    <path id="Path_119" data-name="Path 119" d="M42.8,15.54a7.77,7.77,0,1,1,7.77-7.77A7.778,7.778,0,0,1,42.8,15.54Zm0-12.59a4.84,4.84,0,1,0,4.84,4.84A4.844,4.844,0,0,0,42.8,2.95Z" transform="translate(-21.294)" fill="#004f9d"/>
    <path id="Path_120" data-name="Path 120" d="M51.71,86a4.865,4.865,0,0,1-4.83-4.3L42.82,58.72,38.7,81.8a4.86,4.86,0,0,1-9.65-1.16l2.81-39.65-2.71,7.08a4.048,4.048,0,0,1-7.69-2.52L27.7,24.52a9.07,9.07,0,0,1,8.65-6.45H49.63a9.073,9.073,0,0,1,8.65,6.45l6.24,21.03h0a4.036,4.036,0,0,1-.76,3.72,4.1,4.1,0,0,1-3.53,1.46,4.164,4.164,0,0,1-3.47-2.84l-3-7.88,2.78,40.68a4.825,4.825,0,0,1-1.22,3.71,4.919,4.919,0,0,1-3.62,1.61ZM42.84,48.85h0a1.488,1.488,0,0,1,1.45,1.21l5.5,31.21a1.958,1.958,0,0,0,1.93,1.79,1.941,1.941,0,0,0,1.93-2.14L50.19,30.4a1.459,1.459,0,0,1,2.82-.62l6.53,17.11a1.269,1.269,0,0,0,.99.92,1.107,1.107,0,0,0,1.19-1.42L55.48,25.36A6.13,6.13,0,0,0,49.64,21H36.37a6.121,6.121,0,0,0-5.84,4.36L24.29,46.38a1.1,1.1,0,0,0,.17.98,1.118,1.118,0,0,0,.89.45,1.1,1.1,0,0,0,1.05-.75l6.26-16.34a1.465,1.465,0,0,1,2.83.63L31.98,80.89a1.947,1.947,0,0,0,1.93,2.18,1.935,1.935,0,0,0,1.92-1.71l5.57-31.3a1.46,1.46,0,0,1,1.44-1.2Z" transform="translate(-21.294)" fill="#004f9d"/>
  </g>
</svg>
