<svg id="Icon_Doctor" xmlns="http://www.w3.org/2000/svg" width="176" height="176" viewBox="0 0 176 176">
  <g id="Group_569" data-name="Group 569" transform="translate(-10 -10)">
    <path id="Path_468" data-name="Path 468" d="M183.8,36.931H110.7V16.344A6.352,6.352,0,0,0,104.358,10H91.642A6.352,6.352,0,0,0,85.3,16.344V36.931H12.2a2.2,2.2,0,0,0-2.2,2.2V183.8a2.2,2.2,0,0,0,2.2,2.2H183.8a2.2,2.2,0,0,0,2.2-2.2V39.131A2.2,2.2,0,0,0,183.8,36.931ZM91.642,63.17h12.717a6.352,6.352,0,0,0,6.344-6.344V54.163h4.614a7.712,7.712,0,0,1,0,15.424H80.684a7.712,7.712,0,0,1,0-15.424H85.3v2.662A6.352,6.352,0,0,0,91.642,63.17ZM89.7,16.344A1.947,1.947,0,0,1,91.642,14.4h12.717a1.947,1.947,0,0,1,1.944,1.944V56.825a1.947,1.947,0,0,1-1.944,1.944H91.642A1.947,1.947,0,0,1,89.7,56.825ZM181.6,181.6H14.4V41.331H85.3v8.433H80.684a12.112,12.112,0,0,0,0,24.224h34.633a12.112,12.112,0,0,0,0-24.224H110.7V41.331h70.9Z" fill="#ccdceb"/>
    <path id="Path_469" data-name="Path 469" d="M85.223,67.062H67.656V49.494a2.2,2.2,0,0,0-2.2-2.2H39.648a2.2,2.2,0,0,0-2.2,2.2V67.062H19.881a2.2,2.2,0,0,0-2.2,2.2V95.069a2.2,2.2,0,0,0,2.2,2.2H37.448v17.566a2.2,2.2,0,0,0,2.2,2.2H65.456a2.2,2.2,0,0,0,2.2-2.2V97.269H85.223a2.2,2.2,0,0,0,2.2-2.2V69.262A2.2,2.2,0,0,0,85.223,67.062Zm-2.2,25.807H65.456a2.2,2.2,0,0,0-2.2,2.2v17.566H41.848V95.069a2.2,2.2,0,0,0-2.2-2.2H22.081V71.462H39.648a2.2,2.2,0,0,0,2.2-2.2V51.694H63.256V69.262a2.2,2.2,0,0,0,2.2,2.2H83.023Z" transform="translate(9.217 44.753)" fill="#ccdceb"/>
    <path id="Path_470" data-name="Path 470" d="M53.589,80.383a31.6,31.6,0,1,0,31.6-31.6A31.638,31.638,0,0,0,53.589,80.383Zm15.267,21.7a16.256,16.256,0,0,1,11.57-15.075,2.2,2.2,0,0,0,.413-4.037,9.905,9.905,0,1,1,9.2.116,2.2,2.2,0,0,0,.306,4.05,16.323,16.323,0,0,1,11.186,14.946,27,27,0,0,1-32.671,0Zm16.336-48.9a27.157,27.157,0,0,1,20.3,45.248A20.7,20.7,0,0,0,95.438,84.6a14.292,14.292,0,1,0-20.031-.269A20.566,20.566,0,0,0,64.889,98.423a27.157,27.157,0,0,1,20.3-45.244Z" transform="translate(52.307 46.535)" fill="#ccdceb"/>
  </g>
</svg>
