<svg xmlns="http://www.w3.org/2000/svg" width="61.13" height="86.01" viewBox="0 0 61.13 86.01">
  <g id="Icon_Condition" transform="translate(0)">
    <path id="Path_112" data-name="Path 112" d="M45.91,55.53a1.4,1.4,0,0,0,1.4,1.4H58.14a1.4,1.4,0,1,0,0-2.8H47.31a1.4,1.4,0,0,0-1.4,1.4Z" transform="translate(-13.82 0.01)" fill="#004f9d"/>
    <path id="Path_113" data-name="Path 113" d="M30.62,56.93H41.45a1.4,1.4,0,0,0,0-2.8H30.62a1.4,1.4,0,0,0,0,2.8Z" transform="translate(-13.82 0.01)" fill="#004f9d"/>
    <path id="Path_114" data-name="Path 114" d="M30.62,66.68H44.69a1.4,1.4,0,1,0,0-2.8H30.62a1.4,1.4,0,0,0,0,2.8Z" transform="translate(-13.82 0.01)" fill="#004f9d"/>
    <path id="Path_115" data-name="Path 115" d="M58.14,63.89H50.22a1.4,1.4,0,1,0,0,2.8h7.92a1.4,1.4,0,0,0,0-2.8Z" transform="translate(-13.82 0.01)" fill="#004f9d"/>
    <path id="Path_116" data-name="Path 116" d="M73.55,8.75H62.34a1.4,1.4,0,0,0-1.2-.69H54.1a9.877,9.877,0,0,0-19.42,0H27.64a1.4,1.4,0,0,0-1.2.69H15.22a1.4,1.4,0,0,0-1.4,1.4V84.6a1.4,1.4,0,0,0,1.4,1.4H73.55a1.4,1.4,0,0,0,1.4-1.4V10.15A1.4,1.4,0,0,0,73.55,8.75ZM27.63,23.89H61.14a1.4,1.4,0,0,0,1.4-1.4V17.74h3.41V77H22.82V17.75h3.42V22.5a1.4,1.4,0,0,0,1.4,1.4Zm8.28-13.03A1.388,1.388,0,0,0,37.3,9.53a7.089,7.089,0,0,1,14.16,0,1.4,1.4,0,0,0,1.39,1.33h6.89V21.1H29.03V10.86h6.89ZM72.15,83.21H16.61V11.54h9.62v3.42H21.42a1.4,1.4,0,0,0-1.4,1.4V78.41a1.4,1.4,0,0,0,1.4,1.4H67.34a1.4,1.4,0,0,0,1.4-1.4V16.35a1.4,1.4,0,0,0-1.4-1.4H62.53V11.53h9.62V83.21h0Z" transform="translate(-13.82 0.01)" fill="#004f9d"/>
    <path id="Path_117" data-name="Path 117" d="M44.38,19.96a5.74,5.74,0,1,0-5.74-5.74,5.747,5.747,0,0,0,5.74,5.74Zm0-8.69a2.95,2.95,0,1,1-2.95,2.95,2.955,2.955,0,0,1,2.95-2.95Z" transform="translate(-13.82 0.01)" fill="#004f9d"/>
    <path id="Path_118" data-name="Path 118" d="M36.21,43.2h3.56v3.56a1.4,1.4,0,0,0,1.4,1.4h6.66a1.4,1.4,0,0,0,1.4-1.4V43.2h3.56a1.4,1.4,0,0,0,1.4-1.4V35.14a1.4,1.4,0,0,0-1.4-1.4H49.23V30.18a1.4,1.4,0,0,0-1.4-1.4H41.17a1.4,1.4,0,0,0-1.4,1.4v3.56H36.21a1.4,1.4,0,0,0-1.4,1.4V41.8A1.4,1.4,0,0,0,36.21,43.2Zm1.4-6.66h3.56a1.4,1.4,0,0,0,1.4-1.4V31.58h3.87v3.56a1.4,1.4,0,0,0,1.4,1.4H51.4v3.87H47.84a1.4,1.4,0,0,0-1.4,1.4v3.56H42.57V41.81a1.4,1.4,0,0,0-1.4-1.4H37.61V36.54Z" transform="translate(-13.82 0.01)" fill="#004f9d"/>
  </g>
</svg>
