<svg id="Icon_Genetic" xmlns="http://www.w3.org/2000/svg" width="51.8" height="83.4" viewBox="0 0 51.8 83.4">
  <path id="Path_157" data-name="Path 157" d="M50.1,43A52.261,52.261,0,0,0,68.9,2.7a1.367,1.367,0,0,0-1.4-1.4H63.2a2.881,2.881,0,0,0-2.9,2.8v.1H56a1.367,1.367,0,0,0-1.4,1.4A1.347,1.347,0,0,0,55.9,7H60a58.14,58.14,0,0,1-.9,5.8H26.9A36.888,36.888,0,0,1,26,7H50.2a1.367,1.367,0,0,0,1.4-1.4,1.367,1.367,0,0,0-1.4-1.4H25.8V4.1a2.818,2.818,0,0,0-2.9-2.8H18.6a1.367,1.367,0,0,0-1.4,1.4A52.412,52.412,0,0,0,36,43,52.034,52.034,0,0,0,17.1,83.3a1.367,1.367,0,0,0,1.4,1.4h4.3a2.881,2.881,0,0,0,2.9-2.8v-.1H30a1.367,1.367,0,0,0,1.4-1.4A1.347,1.347,0,0,0,30.1,79H26a58.14,58.14,0,0,1,.9-5.8H59.1A36.888,36.888,0,0,1,60,79H35.8a1.4,1.4,0,0,0,0,2.8H60.2v.1a2.818,2.818,0,0,0,2.9,2.8h4.3a1.367,1.367,0,0,0,1.4-1.4A51.846,51.846,0,0,0,50.1,43Zm8.2-27.3a40.654,40.654,0,0,1-2.2,5.8H50.2a1.4,1.4,0,1,0,0,2.8h4.4a42.059,42.059,0,0,1-3.9,5.8H45.8a1.4,1.4,0,1,0,0,2.8h2.4a39.575,39.575,0,0,1-5.3,4.7,46.9,46.9,0,0,1-5.3-4.7H40a1.4,1.4,0,1,0,0-2.8H35.1a48.9,48.9,0,0,1-3.9-5.8H44.3a1.4,1.4,0,1,0,0-2.8H29.9a40.654,40.654,0,0,1-2.2-5.8ZM20,4.2h2.9c0,.5.1.9.1,1.4h0A46.569,46.569,0,0,0,40.6,39.4h-.1l-2.1,1.5c-.1.1-.2.1-.3.2A49.561,49.561,0,0,1,20,4.2Zm0,77.6A49.314,49.314,0,0,1,39,44.1a37.117,37.117,0,0,1,3.2-2.3c.5-.4,1.1-.7,1.6-1.1h0A46.7,46.7,0,0,0,63,5.7h0c0-.5.1-.9.1-1.4H66A49.314,49.314,0,0,1,47,42a37.117,37.117,0,0,1-3.2,2.3c-.5.4-1.1.7-1.6,1.1h0A46.7,46.7,0,0,0,23,80.4h0c0,.5-.1.9-.1,1.4Zm7.7-11.5a40.654,40.654,0,0,1,2.2-5.8h5.9a1.4,1.4,0,1,0,0-2.8H31.4a42.059,42.059,0,0,1,3.9-5.8h4.9a1.4,1.4,0,1,0,0-2.8H37.8a39.575,39.575,0,0,1,5.3-4.7,46.9,46.9,0,0,1,5.3,4.7H46a1.4,1.4,0,1,0,0,2.8h4.9a48.9,48.9,0,0,1,3.9,5.8H41.6a1.4,1.4,0,0,0,0,2.8H56.2a40.655,40.655,0,0,1,2.2,5.8ZM63.1,81.8c0-.5-.1-.9-.1-1.4h0A46.569,46.569,0,0,0,45.4,46.6h.1l2.1-1.5c.1-.1.2-.1.3-.2A49.561,49.561,0,0,1,66,81.8Z" transform="translate(-17.1 -1.3)" fill="#004f9d"/>
</svg>
